<?xml version="1.0" encoding="UTF-8"?>
<svg width="134px" height="28px" viewBox="0 0 134 28" version="1.1" xmlns="http://www.w3.org/2000/svg" xmlns:xlink="http://www.w3.org/1999/xlink">
    <!-- Generator: Sketch 55.2 (78181) - https://sketchapp.com -->
    <title>Group 29</title>
    <desc>Created with Sketch.</desc>
    <defs>
        <polygon id="path-1" points="0 0.0116805181 10.7900375 0.0116805181 10.7900375 15.8497487 0 15.8497487"></polygon>
        <polygon id="path-3" points="0.156136709 0.30625 37.5800759 0.30625 37.5800759 5.25 0.156136709 5.25"></polygon>
    </defs>
    <g id="Page-1" stroke="none" stroke-width="1" fill="none" fill-rule="evenodd">
        <g id="RideStatus" transform="translate(-1066.000000, -23.000000)">
            <g id="Group-29" transform="translate(1066.000000, 22.991018)">
                <g id="Group-3" transform="translate(0.000000, 0.008982)">
                    <mask id="mask-2" fill="white">
                        <use xlink:href="#path-1"></use>
                    </mask>
                    <g id="Clip-2"></g>
                    <path d="M-5.20834034e-05,7.92441212 C0.00362083333,4.0742303 1.70312083,0.00683636364 6.00457917,0.0116805181 C8.67207917,0.0141090909 10.0356208,1.39350303 10.6754542,2.77289697 L9.0616625,3.64610909 C8.38057917,2.57313939 7.59499583,1.78526061 6.00274583,1.78332121 C2.90120417,1.77992727 1.86399583,5.12635152 1.86124583,7.92586667 C1.85849583,10.9668364 3.09645417,14.052897 5.9912875,14.0558061 C7.5835375,14.0572606 8.47362083,13.2708364 9.13682917,12.1120485 L10.7900375,12.7699879 C10.0443292,14.4752 8.5336625,15.8521697 5.9899125,15.8497487 C1.60549583,15.844897 -0.0037125,11.8182303 -5.20834034e-05,7.92441212" id="Fill-1" fill="#231F20" mask="url(#mask-2)"></path>
                </g>
                <path d="M24.0116204,8.01338599 C24.0150028,4.98590051 22.8600415,1.8021672 19.4953995,1.79873666 C16.1525493,1.79579974 14.9690166,5.19798613 14.9661056,8.0045695 C14.9632054,11.0325448 16.1399585,14.1932573 19.4828088,14.1971776 C22.847935,14.2001145 24.0091917,10.7979281 24.0116204,8.01338599 M13.0000067,8.00261028 C13.0038874,4.17919147 14.6900825,0.00409258812 19.4968523,0.00898633387 C24.3254138,0.0138886906 26.0038607,4.19192641 25.9999933,8.01534521 C25.9965968,11.838764 24.3099175,16.0138629 19.4818402,16.0089692 C14.6745862,16.0040668 12.9961393,11.8255393 13.0000067,8.00261028" id="Fill-4" fill="#231F20"></path>
                <path d="M40.0820656,8.51562172 C40.0853646,5.60222886 38.7458376,2.73014389 35.4652475,2.72729507 L32.865989,2.72492105 L32.8546571,14.2716618 L35.2192505,14.2735645 C38.9266761,14.2773594 40.0796987,11.2362445 40.0820656,8.51562172 L40.0820656,8.51562172 Z M35.0832675,1.01325527 C40.196323,1.0180033 42.0032916,4.81168142 42,8.51799574 C41.9966813,11.9669667 40.3946315,16.0141898 34.9831689,16.008972 L31,16.0051685 L31.0146371,1.00898204 L35.0832675,1.01325527 Z" id="Fill-6" fill="#231F20"></path>
                <polygon id="Fill-8" fill="#231F20" points="44.0156843 1.00898204 53.5122692 1.01752553 53.5102454 2.77368792 46 2.76656834 45.9949406 7.37103627 50.9486466 7.37578266 50.9466228 9.13194505 45.9929168 9.12719866 45.9873514 14.2238667 54 14.2314609 53.9979762 16.008982 44 15.9999639"></polygon>
                <path d="M65.1549359,7.84619344 C67.3219046,7.84808977 68.0525582,6.56427392 68.0540295,5.32222361 C68.0550084,4.20879219 67.4375547,2.75174426 65.1603264,2.74984582 L60.9371387,2.74557435 L60.9322382,7.84239447 L65.1549359,7.84619344 Z M59.0151913,1.00898204 L65.1176927,1.01515195 C68.8322161,1.0184742 70.0019479,3.16133135 70,5.28140729 C69.9980276,7.05834131 68.9787388,8.94206224 66.3913136,9.45369015 L69.7010617,16.008982 L67.5340931,16.0070836 L64.3571464,9.579936 L60.9302781,9.57661374 L60.9234175,16.0009137 L59,15.9990153 L59.0151913,1.00898204 Z" id="Fill-10" fill="#231F20"></path>
                <polygon id="Fill-12" fill="#231F20" points="73.015425 1.00898204 75.0340377 1.01040595 75.0196411 14.202508 83 14.2101022 82.9984575 16.008982 73 15.9999639"></polygon>
                <path d="M94.0183222,5.14386826 C93.8610279,4.71566305 93.6133518,4.00831742 93.524468,3.62283778 C93.4111162,4.00831742 93.184912,4.71471359 93.0271184,5.14339353 L90.9708074,10.6891732 L96.0401782,10.6934458 L94.0183222,5.14386826 Z M96.6468848,12.3436024 L90.3835753,12.3374309 L89.0503188,15.9990127 L87,15.9971138 L92.6031728,1.00898204 L94.4277867,1.01040622 L100,16.008982 L97.9946224,16.0075579 L96.6468848,12.3436024 Z" id="Fill-14" fill="#231F20"></path>
                <path d="M112.183072,16.0070837 L105.435568,5.29361154 C105.242511,4.97231178 105.028055,4.60782403 104.835949,4.24381087 C104.856871,4.56511062 104.878269,4.95095508 104.877794,5.29313694 L104.866857,15.9999648 L103,15.9980664 L103.015216,1.00898204 L104.902996,1.01040582 L111.543509,11.6806899 C111.757489,12.0451777 111.950547,12.3878342 112.165002,12.7950353 C112.143604,12.4096655 112.122682,12.0456523 112.122682,11.7029958 L112.133619,1.01799931 L114,1.01942309 L113.985259,16.008982 L112.183072,16.0070837 Z" id="Fill-16" fill="#231F20"></path>
                <path d="M128.082536,8.51586022 C128.085365,5.60255906 126.74631,2.7305645 123.46572,2.72771577 L120.866461,2.72486704 L120.855129,14.2717191 L123.219723,14.2736218 C126.926676,14.2774165 128.079699,11.2363973 128.082536,8.51586022 L128.082536,8.51586022 Z M123.08374,1.01325513 C128.196323,1.0184778 130.003292,4.81203651 130,8.51775937 C129.996681,11.9670965 128.394632,16.0137174 122.983641,16.008982 L119,16.0042217 L119.014637,1.00898204 L123.08374,1.01325513 Z" id="Fill-18" fill="#231F20"></path>
                <polygon id="Fill-20" fill="#CB2026" points="1 23.008982 6.47601666 27.9797785 39 28.008982 33.5234949 23.0381856"></polygon>
                <polygon id="Fill-22" fill="#EEAB1F" points="33 23.008982 38.4765051 27.9797785 71 28.008982 65.5234949 23.0377431"></polygon>
                <polygon id="Fill-24" fill="#94C83D" points="64 23.008982 69.4765051 27.9797785 102 28.008982 96.5239833 23.0377431"></polygon>
                <g id="Group-28" transform="translate(96.000000, 22.008982)">
                    <mask id="mask-4" fill="white">
                        <use xlink:href="#path-3"></use>
                    </mask>
                    <g id="Clip-27"></g>
                    <polygon id="Fill-26" fill="#08B9E3" mask="url(#mask-4)" points="0.156136709 0.583333333 5.54925063 5.22274336 37.5803646 5.25 32.1872506 0.610589971"></polygon>
                </g>
            </g>
        </g>
    </g>
</svg>